<?xml version="1.0" encoding="UTF-8"?>
<svg xmlns="http://www.w3.org/2000/svg" viewBox="0 0 96 140">
    <style>
        path { fill: black; }
        @media (prefers-color-scheme: dark) {
            path { fill: white; }
        }
    </style>
    <path d="M27.503 140c-.242 0-.365-1.499-.365-4.465 0-2.456-.218-5.697-.484-7.204-.266-1.506-.665-4.416-.887-6.467-.221-2.05-.443-7.708-.492-12.571-.085-8.372-.136-9.003-.969-11.864a227.62 227.62 0 0 1-1.618-5.904c-.405-1.584-.793-2.946-.861-3.026-.068-.079-.351.15-.629.509-.498.644-.513.643-1.044-.025a6.714 6.714 0 0 1-.827-1.408c-.159-.401-.451-.83-.649-.952s-.36-.456-.36-.742-.313-.918-.697-1.405c-.538-.684-.655-1.196-.513-2.257.101-.754.097-1.183-.008-.953-.148.324-.413.305-1.166-.085-.536-.276-1.386-.503-1.888-.503-.61 0-1.264-.387-1.968-1.163-.579-.64-2.274-1.889-3.767-2.775-1.493-.887-3.551-2.461-4.575-3.498-1.024-1.037-2.005-2.191-2.182-2.564-.176-.373-.511-.84-.745-1.038-.234-.198-.528-.77-.654-1.271-.126-.501-.134-1.286-.019-1.744.124-.494.656-1.04 1.308-1.342.605-.279 2.016-.544 3.136-.587 1.545-.06 2.379.1 3.465.665.787.408 1.594 1.047 1.793 1.42.199.372.624.684.944.692.32.009.887.408 1.26.888.374.48.946 1.159 1.272 1.51.327.351.599.904.605 1.231.006.326.213.86.461 1.186.248.326.56.593.692.593.133 0 .46.218.726.485.267.266.485 1.016.485 1.666 0 .651.176 1.242.392 1.314.243.08.309.465.174 1.003-.194.773-.094.902.879 1.129.605.141 1.225.233 1.378.203.154-.03.192.088.085.262-.107.173-.523.23-.923.125-.658-.172-.704-.095-.481.794.136.541.324 1.061.418 1.154.094.094.435-.154.757-.551s1.095-.834 1.718-.971c.934-.205 1.097-.158.934.267-.109.286.096.78.464 1.112.632.571.681.571 1.115-.022.345-.472.933-.629 2.453-.654 1.937-.032 2.052-.086 3.63-1.715 1.269-1.31 1.587-1.852 1.435-2.455-.138-.55-.046-.773.321-.773.342 0 .516-.329.516-.977 0-.681.199-1.03.656-1.149.451-.118.722-.58.868-1.48.117-.72.455-1.752.751-2.293.42-.768.452-1.12.148-1.606-.319-.511-.267-.7.29-1.048.406-.253.679-.79.679-1.336 0-.627.221-.983.707-1.137.389-.123.862-.667 1.051-1.209.189-.542.562-.985.83-.985.267 0 .571-.22.674-.489.103-.27.088-.803-.033-1.187-.122-.383-.44-.697-.708-.697a.497.497 0 0 1-.486-.504c0-.32-.276-.475-.754-.424-.611.065-.853-.197-1.267-1.376-.392-1.112-.417-1.515-.107-1.707.224-.138.321-.578.216-.978-.104-.4-.41-.811-.68-.915-.374-.143-.406-.344-.136-.848.194-.364.354-1.043.354-1.511 0-.467-.146-.94-.325-1.05-.178-.11-.224-.462-.102-.783.123-.32.498-.878.834-1.24.447-.481.503-.724.207-.907-.308-.19-.313-.548-.02-1.502.31-1.009.284-1.505-.136-2.554-.287-.717-.813-1.395-1.168-1.508-.356-.112-.647-.487-.647-.832 0-.344-.142-.677-.314-.74-.173-.062-.414-.515-.537-1.007-.19-.767-.084-.943.739-1.231.96-.336.96-.336.058-.695-.591-.236-.978-.708-1.123-1.371-.171-.777-.011-1.333.687-2.387.542-.818 1.443-1.609 2.227-1.955.966-.426 1.316-.783 1.316-1.342 0-.626-.258-.813-1.437-1.046-1.025-.203-1.555-.524-1.852-1.122-.229-.461-.651-.887-.938-.947-.287-.061-.522-.338-.522-.616 0-.278.152-.79.338-1.138.252-.469.198-.773-.209-1.179-.37-.371-.483-.867-.349-1.536.108-.544.067-1.07-.093-1.168-.16-.099-.396-.599-.525-1.112-.128-.512-.352-1.009-.496-1.105-.144-.095-.374-.63-.511-1.189a24.885 24.885 0 0 1-.418-2.382c-.093-.751-.012-2.49.178-3.864.301-2.17.494-2.637 1.47-3.55.618-.579 1.386-1.16 1.706-1.291.321-.132.673-.094.784.085.11.178.638.324 1.174.324.535 0 1.175.205 1.421.457.247.251.983 1.204 1.636 2.118 1.187 1.662 1.187 1.662 1.187 7.142 0 3.386.153 5.886.4 6.541.22.583.318 1.625.218 2.316-.1.691-.483 1.519-.85 1.84-.367.321-.585.717-.484.881.101.164-.202.504-.675.757-.8.428-.814.475-.201.702.361.133.756.636.876 1.117.121.481.381.874.577.874.196 0 .613.252.926.559.314.308.633.724.709.926.077.202.344.572.594.822.25.249.454.75.454 1.112 0 .362.175.938.389 1.28.214.342.311 1.027.216 1.521-.094.494-.04.899.121.899.16 0 .292.229.292.509 0 .279.244.508.542.508.462 0 .51.315.329 2.119a90.293 90.293 0 0 1-.327 2.886c-.081.554.087.816.604.941.395.095 1.862.251 3.262.345 1.942.132 2.763.046 3.47-.363.69-.398 1.095-.445 1.585-.183.558.298.757.183 1.299-.747.351-.605.859-1.557 1.128-2.117.268-.559.631-1.119.806-1.245.189-.135.137-.446-.125-.763-.245-.294-.693-.539-.996-.545-.304-.007-.905-.305-1.335-.664-.431-.358-.898-1.078-1.038-1.599-.141-.52-.202-1.189-.136-1.486.066-.297-.107-.727-.383-.957-.277-.23-.431-.607-.342-.839.089-.231-.072-.868-.359-1.415-.286-.548-.455-1.17-.376-1.383.08-.214.661-.904 1.291-1.533.63-.63 1.245-1.404 1.366-1.72.122-.316.073-.666-.109-.778-.181-.113-.231-.363-.111-.558a.415.415 0 0 0-.133-.57c-.207-.128-.308-1.257-.247-2.759.057-1.398.198-3.342.312-4.321.164-1.397.106-1.78-.265-1.78-.261 0-.544-.367-.63-.815-.086-.448-.044-1.02.094-1.271.137-.251-.205-1.905-.761-3.677-.91-2.9-.991-3.519-.812-6.231.146-2.22.4-3.378.967-4.407.503-.913 1.044-1.435 1.564-1.509.475-.067.71.026.583.231-.117.189-.07.432.103.539.174.107.386.004.47-.231.124-.341.298-.341.873-.002.395.233 1.25.424 1.899.424.872 0 1.134.124 1 .473-.101.262.167.718.598 1.019.675.473.797.897.91 3.171.072 1.444.283 2.721.469 2.838.203.128.153.287-.124.398-.321.128-.35.271-.094.465.202.154.547.801.765 1.438.325.948.304 1.3-.114 1.937-.281.429-.511 1.081-.511 1.449 0 .369.141.757.313.864.172.106.411.64.531 1.186.126.572.039 1.325-.205 1.776-.233.43-.479 1.774-.547 2.986-.069 1.212-.363 2.89-.654 3.729-.291.839-.607 1.868-.702 2.288-.123.547-.017.763.376.763.302 0 .559-.191.573-.424.013-.233.155-.119.315.254s.302 1.677.315 2.898c.014 1.236-.146 2.391-.36 2.605-.212.212-.303.7-.202 1.086.114.434-.018.813-.346.997a.675.675 0 0 0-.315.854c.118.307.446.647.729.756.283.108.428.336.323.506a.369.369 0 0 1-.507.114c-.174-.108-.47.195-.656.672-.187.477-.433 1.098-.546 1.38-.137.338-.05.457.255.349.254-.09.735.043 1.068.297.334.253.583.592.554.753-.029.161-.035.797-.013 1.414.026.722.173 1.04.413.891.257-.158.252-.003-.019.502-.215.402-.296 1.031-.18 1.397.116.365.344.665.507.665.163 0 .395-.159.515-.353.12-.194.507-.261.861-.149.414.131.95-.081 1.51-.6.49-.454.899-1.238.94-1.8.047-.645-.077-.967-.351-.912-.234.047-.424-.215-.424-.582 0-.476.157-.607.548-.458.467.18.49.103.158-.519-.251-.468-.28-.941-.08-1.322.171-.326.425-1.127.565-1.78.14-.652.539-1.55.888-1.995.396-.505.634-1.356.634-2.268 0-.803.16-1.558.355-1.678.194-.121.755.043 1.244.364.685.449 1.029.497 1.488.211.444-.277.635-.267.748.039.114.311.253.316.567.022.261-.245.332-.773.19-1.418-.124-.564-.444-1.208-.712-1.431-.268-.222-.487-.775-.487-1.229 0-.455-.136-.742-.302-.64-.166.103-.548-.331-.848-.963-.301-.633-.546-1.746-.546-2.475 0-.728-.212-1.613-.47-1.966-.287-.393-.361-.845-.19-1.166.154-.289.575-1.593.936-2.898.383-1.387.597-3.007.515-3.899-.077-.839-.294-1.802-.483-2.141-.189-.339-.25-1.331-.136-2.204.114-.873.355-1.946.535-2.384.267-.652.418-.722.823-.386.273.226.743.317 1.045.201.416-.16.488-.436.296-1.14-.139-.511-.231-1.302-.204-1.757.027-.456.24-.949.472-1.097.232-.147 1.079-.27 1.881-.273.802-.003 1.907.227 2.456.51.549.284 1.245.893 1.547 1.354.344.524.614 1.886.723 3.637.142 2.296.033 3.256-.606 5.341-.428 1.399-.837 3.077-.908 3.729-.072.653-.367 1.745-.657 2.427-.424.998-.482 1.978-.297 5.033.197 3.264.151 3.88-.332 4.412-.372.411-.522 1.056-.446 1.916.085.963-.006 1.271-.352 1.198-.257-.054-.516-.05-.576.01-.06.06-.21.372-.333.692-.151.393-.056.583.289.583.391 0 .48.301.373 1.271-.077.7-.289 2.737-.473 4.528-.33 3.236-.342 3.266-1.833 4.756-.825.825-1.664 1.445-1.864 1.378-.201-.067-.543.269-.761.747-.343.753-.447.798-.782.339-.213-.29-.68-.555-1.038-.587-.4-.036-.703.194-.786.597-.075.366.135.852.476 1.101.515.377.527.447.073.447a.842.842 0 0 0-.729.499c-.105.275-.007.618.218.763.226.145.41.568.41.941 0 .527.226.678 1.018.678.56 0 1.14.191 1.289.424.149.233.938.423 1.753.423.814 0 1.532.131 1.594.29.062.16.876.458 1.809.663.933.205 2.495.469 3.471.588s2.145.507 2.597.863c.453.356 1.06.647 1.349.647.29 0 .905.649 1.369 1.441.463.792 1.029 2.14 1.257 2.995.306 1.149.319 1.901.05 2.881-.2.73-.698 2.166-1.106 3.192-.408 1.025-.969 2.905-1.247 4.177-.41 1.881-.434 2.8-.126 4.915.209 1.432.462 3.518.563 4.637.101 1.118.164 4.55.139 7.627-.024 3.076.107 6.203.292 6.949.207.832.215 1.399.02 1.469-.177.063-.317 2.276-.317 5 0 2.688.138 4.887.306 4.887.168 0 .097.694-.158 1.542-.27.896-.564 4.195-.701 7.871-.169 4.556-.328 6.121-.566 5.588-.21-.469-.231-3.27-.06-7.617.15-3.782.285-10.498.301-14.924.02-5.19-.099-8.253-.333-8.624-.2-.317-.544-.636-.764-.709-.236-.078-.399.215-.399.715 0 .466.182.908.405.982.299.1.244.649-.214 2.104-.341 1.082-.923 2.217-1.293 2.52-.37.303-.884 1.043-1.142 1.643-.362.839-.472 3.22-.476 10.339-.004 5.086-.148 10.595-.322 12.242-.173 1.646-.571 3.765-.884 4.707-.313.942-1.104 2.304-1.758 3.027-1.076 1.191-1.172 1.458-1.016 2.841.095.839.038 1.609-.126 1.71-.164.102-.298.871-.298 1.71 0 1.078.116 1.453.397 1.28.277-.171.322-.049.149.404-.136.357-.388.791-.561.965-.172.174-.408.222-.524.106-.116-.116-.293-1.86-.395-3.876-.184-3.665-.184-3.665-1.628-5.021-1.019-.957-1.555-1.805-1.82-2.881a96.206 96.206 0 0 0-.712-2.712c-.186-.653-.756-1.939-1.268-2.858-.512-.92-1.14-1.739-1.395-1.822-.388-.124-.444 1.735-.339 11.333.124 11.483.124 11.483-.627 11.589-.55.078-.803-.103-.944-.678-.107-.431-.334-3.912-.506-7.734s-.485-7.788-.696-8.813c-.211-1.026-.841-3.237-1.4-4.915a567.99 567.99 0 0 0-1.747-5.17c-.402-1.165-.848-2.119-.99-2.119-.143 0-.259.784-.259 1.741 0 .957-.179 2.335-.397 3.063-.218.728-.745 1.699-1.171 2.158-.432.466-1.156.835-1.639.835-.763 0-.864.14-.864 1.197 0 .659.229 1.745.509 2.415.28.669.509 1.579.509 2.023 0 .479-.2.806-.494.806-.306 0-.573-.482-.704-1.271-.116-.7-.352-1.714-.524-2.254-.173-.541-.313-1.73-.313-2.643 0-.912-.25-2.65-.554-3.861-.321-1.278-.712-2.149-.933-2.077-.208.069-.471.799-.583 1.624-.203 1.499-.203 1.499-.254-.169-.028-.918-.262-1.91-.519-2.204-.257-.294-.737-1.066-1.066-1.714-.329-.648-.737-1.678-.905-2.288-.26-.939-.463-1.109-1.327-1.109-1.021 0-1.021 0-.807-6.356.192-5.701.301-6.562 1.049-8.355.458-1.099.784-2.148.723-2.33-.061-.183-.395.297-.742 1.066-.347.769-.738 1.398-.869 1.398-.132 0-.334-1.016-.45-2.259-.116-1.242-.122-2.614-.013-3.048.195-.775.217-.779 1.183-.209.542.32.941.712.888.871-.053.159-.22.265-.371.236a.565.565 0 0 0-.456.128c-.099.1.092.454.425.788.388.387.654.467.736.221.07-.211.426-.307.79-.211.417.109.662.464.662.961 0 .433-.152.882-.339.997-.187.115-.339.369-.339.565 0 .195.21.274.467.176.257-.099.639-.008.848.201.236.235.381 1.812.381 4.135 0 2.065-.16 5.027-.355 6.583-.195 1.556-.269 2.914-.164 3.019.105.105.332.049.504-.125s.39-3.215.485-6.757c.094-3.543.198-6.746.23-7.119.049-.579.08-.591.213-.083.085.327.452.753.815.948.363.194.789.274.946.177.156-.097.394 1.917.527 4.476.134 2.558.321 5.786.417 7.173.116 1.681-.004 3.263-.359 4.746-.41 1.71-.461 2.721-.221 4.378.172 1.185.411 2.253.531 2.373.12.12.439-.084.709-.453.27-.369.645-1.208.834-1.864.189-.656.487-2.49.662-4.074.175-1.585.389-4.613.476-6.728.087-2.116.037-5.167-.111-6.78-.148-1.613-.254-2.95-.236-2.97.018-.021.453-.138.966-.261.707-.169.933-.099.933.291 0 .286.297.515.667.515.366 0 .836-.317 1.043-.704.208-.388.307-.89.22-1.116-.087-.226.052-.699.309-1.05.439-.6.481-.573.683.438.119.592.319 1.076.445 1.076.125 0 .166-.532.09-1.183-.112-.959-.005-1.233.564-1.444.387-.143.913-.547 1.17-.898.41-.56.494-.168.689 3.224.123 2.123.223 5.462.222 7.42 0 1.958.158 5.542.353 7.966.195 2.429.669 5.472 1.058 6.78.387 1.305 1.197 3.212 1.8 4.237.602 1.026 1.511 3.032 2.02 4.46.508 1.427 1.208 2.851 1.554 3.164.607.549.633.47.749-2.257.067-1.553-.001-5.647-.15-9.096-.15-3.449-.185-7.148-.078-8.22.189-1.894.171-1.949-.634-1.949-.461 0-.925.251-1.046.566-.12.311-.043.674.17.805.253.157.268.312.042.452-.19.117-.588.12-.885.006-.296-.114-.542-.343-.546-.51-.004-.166-.001-6.921.007-15.01.013-14.709.013-14.709-1.051-15.382-.59-.373-1.369-.594-1.748-.495-.376.099-.922.593-1.212 1.099-.528.92-.528.92-1.254-.136s-.726-1.056.008-1.808c.403-.414.907-1.331 1.119-2.038.212-.707.296-1.627.187-2.045-.161-.614-.058-.758.539-.758.406 0 .65-.142.543-.316-.107-.174-.04-.411.15-.528.189-.118.344-.735.344-1.372 0-.637.305-1.657.678-2.268.372-.61.677-1.589.678-2.174.001-.585-.266-1.373-.592-1.75-.327-.377-.917-.779-1.311-.893-.544-.157-.919.059-1.557.903-.463.61-.942 1.518-1.065 2.018-.123.5-.071 1.309.115 1.799.218.574.22.817.006.685-.184-.113-.639.297-1.013.912-.374.614-.596 1.382-.493 1.706.109.343-.176 1.065-.682 1.728-.478.626-.87 1.497-.87 1.934 0 .794 0 .794-.683.061-.376-.403-.828-1.113-1.005-1.577-.204-.536-.202-.918.005-1.046.18-.111.327-.592.327-1.068 0-.734-.118-.836-.764-.663-.42.112-1.03.206-1.357.209-.326.003-.593.254-.593.559 0 .305-.398.923-.884 1.372-.838.777-.906.788-1.334.209-.249-.336-.576-1.983-.728-3.661-.152-1.678-.243-3.356-.202-3.729.041-.372.17-1.235.287-1.916.17-.987.069-1.382-.498-1.949-.409-.408-1.148-.711-1.738-.711-.789 0-1.102.201-1.357.87-.182.478-.328 1.355-.326 1.949.003.594.118 1.245.255 1.447.137.203.535.525.885.716.586.319.565.365-.254.57-.74.186-.891.416-.891 1.362 0 .626.236 1.335.525 1.574.419.347.436.49.085.707-.292.181-.44 1.063-.44 2.629 0 1.296-.115 2.471-.255 2.611-.139.14-.254.752-.254 1.36 0 .608-.24 1.346-.533 1.639-.293.293-.98.532-1.527.532-.831 0-.993-.137-.993-.84 0-.463-.246-1.455-.546-2.206-.301-.751-.846-1.745-1.212-2.21-.366-.465-.998-.841-1.404-.835-.407.006-1.028.229-1.38.496-.533.403-.605.754-.425 2.07.12.872.676 2.43 1.236 3.463.559 1.033 1.024 2.346 1.032 2.919.008.573.242 1.652.519 2.397.277.746.736 3.873 1.019 6.95.284 3.076.532 7.957.552 10.847.02 2.89-.073 5.979-.207 6.865-.218 1.441-.335 1.61-1.118 1.61-.481 0-1.073-.267-1.316-.594-.418-.56-.479-.556-1.12.085-.627.628-.686 1.21-.783 7.797-.101 6.874-.136 7.188-1.013 9.152-.837 1.874-.926 2.513-1.129 8.104-.122 3.339-.345 6.695-.497 7.458-.275 1.388-.275 1.388-.312-.073-.022-.85-.175-1.376-.367-1.257-.181.111-.407-.147-.503-.574-.096-.427-.252-3.217-.346-6.2-.094-2.983-.261-6.866-.37-8.629-.181-2.906-.29-3.309-1.177-4.317-.537-.612-1.153-1.763-1.368-2.558-.214-.795-.589-2.742-.832-4.327a723.502 723.502 0 0 0-.991-6.246c-.302-1.851-.735-3.746-.963-4.212-.227-.466-.584-.903-.792-.97-.219-.071-.472.491-.599 1.331-.121.799-.712 2.898-1.314 4.665-1.047 3.072-1.094 3.438-1.097 8.474-.002 2.895-.14 5.362-.306 5.483-.167.121-.193 1.181-.059 2.369.134 1.182.346 2.227.472 2.323.126.095.27.936.32 1.868.051.932.177 4.555.281 8.051.132 4.435.079 6.356-.177 6.356Zm46.491-16.431c.359-1.114.808-3.021.996-4.238.188-1.217.565-4.424.838-7.128.273-2.703.485-6.669.473-8.813-.013-2.144-.127-4.16-.254-4.479-.166-.417-.375-.492-.74-.265-.412.256-.431.442-.1.976.321.517.318.734-.011 1.007-.231.192-.814.498-1.295.681-.482.183-.947.535-1.034.783-.087.247-.043 3.271.097 6.721.141 3.449.283 8.635.316 11.525.06 5.254.06 5.254.714 3.23Zm.908 1.007c.192-.186.582-1.178.867-2.203.285-1.026.621-2.894.746-4.153.159-1.594.114-2.288-.15-2.288-.215 0-.379.578-.379 1.334 0 .734-.233 2.45-.518 3.814-.284 1.363-.607 2.784-.716 3.157-.136.461-.088.57.15.339Zm-35.244-10.847c-1.663 3.415-2.201 4.674-2.268 5.002-.068.327.066 1.438.296 2.469.231 1.03.532 1.754.669 1.608.138-.146.494-.996.792-1.888.329-.983.536-2.718.526-4.406l-.015-2.785Zm22.962 5.254c.075 0 .136-1.144.136-2.542 0-2.034-.102-2.543-.509-2.543-.374 0-.508.39-.508 1.475 0 .811.167 1.955.372 2.543.205.587.434 1.067.509 1.067Zm-26.383-5.254c.06-1.678.008-4.757-.117-6.843-.227-3.791-.227-3.791-1.274-4.156-.8-.279-1.112-.264-1.316.063-.147.235-.177 1.266-.065 2.292.111 1.025.563 3.695 1.005 5.932.442 2.237.995 4.449 1.23 4.915.38.754.439.511.537-2.203Zm20.545-.345c.259-.354.396-.84.304-1.08-.092-.24-.304-.351-.471-.248-.167.103-.304.589-.304 1.08 0 .844.025.857.471.248Zm-18.419-.333c.149-.373.433-1.486.629-2.474.197-.988.358-2.48.358-3.314 0-1.328-.112-1.56-.895-1.857-.493-.187-.967-.269-1.054-.182-.087.087-.073 1.426.031 2.975.104 1.55.295 3.428.424 4.174.193 1.12.281 1.238.507.678Zm23.953.169c.388 0 .46-.228.292-.932a34.714 34.714 0 0 0-.601-2.119c-.208-.652-.445-.992-.524-.755-.08.238-.041 1.191.087 2.119.162 1.179.387 1.687.746 1.687Zm-2.952-4.067c.181-.28.331-1.615.334-2.967.003-1.415-.139-2.457-.334-2.457-.201 0-.337 1.211-.334 2.966.004 2.04.108 2.807.334 2.458Zm-9.907-1.03c.056-.474-.044-1.236-.22-1.695-.281-.731-.351-.76-.563-.235-.133.329-.034 1.092.22 1.694.453 1.072.465 1.077.563.236Zm3.147.182c.161-.373.336-1.364.388-2.203.074-1.173-.021-1.526-.412-1.526-.369 0-.538.456-.614 1.652-.058.909-.004 1.9.12 2.204.197.479.264.463.518-.127Zm10.061.158c.062-.286-.127-1.2-.421-2.031-.293-.831-.699-1.664-.903-1.853-.263-.244-.316.012-.183.894.103.68.459 1.747.791 2.373.393.741.643.956.716.617Zm-36.23-2.361c.2 0 .364-.479.364-1.065 0-.585.227-1.233.505-1.44.278-.207.659-1.198.848-2.203.188-1.004.343-2.269.343-2.811 0-.557-.338-1.349-.777-1.822-.427-.461-1.381-1.674-2.12-2.697-.739-1.022-1.389-1.654-1.443-1.402-.055.251.211 1.246.591 2.21.381.965.875 2.856 1.098 4.204.224 1.347.366 3.479.317 4.738-.056 1.455.044 2.288.274 2.288Zm40.901-1.017c-.34 0-.509-.339-.509-1.017 0-.56-.167-1.017-.371-1.017s-.451.305-.549.678c-.097.373-.316.678-.485.678-.169 0-.457-.392-.639-.87-.187-.491-.331-5.059-.331-10.488 0-6.047.126-9.697.34-9.829.186-.115.339-.487.339-.826 0-.339.212-.792.472-1.007.259-.216.574-1.073.699-1.906.179-1.195.366-1.515.885-1.515.64 0 .658.369.658 13.559 0 11.827-.065 13.56-.509 13.56Zm-12.354-1.695c-.504 0-.645-.394-.825-2.288-.118-1.259-.217-3.928-.218-5.933-.002-2.693.108-3.642.421-3.638.234.002.596.117.807.254.21.137.388.707.395 1.266.007.559.122 2.409.256 4.111s.137 3.8.008 4.661c-.179 1.194-.38 1.567-.844 1.567Zm13.687-29.287c.386-.1.969-.508 1.296-.908.326-.4.593-1.063.593-1.473 0-.41.224-1.041.498-1.403.274-.362.503-1.054.509-1.538.006-.483-.276-1.139-.628-1.457-.439-.397-.918-.507-1.535-.352-.493.123-1.041.494-1.218.824-.177.33-.491 1.692-.698 3.028-.296 1.906-.285 2.539.052 2.944.249.3.723.44 1.131.335Zm-10.63-8.108c.112-.034.601-.329 1.087-.654.801-.534.875-.767.782-2.446-.088-1.585.013-1.965.694-2.604a2.488 2.488 0 0 0 .797-1.834c0-.597-.191-1.243-.424-1.436-.233-.193-.963-.451-1.622-.574-.956-.178-1.324-.084-1.824.468-.405.447-.608 1.145-.574 1.973.028.705.056 1.739.062 2.298.005.56-.093 1.598-.218 2.308-.179 1.012-.091 1.427.405 1.927.349.351.724.609.835.574Zm23.623-12.436c-.821 0-1.584-.091-1.696-.203-.112-.112-.055-.531.126-.932s.259-1.721.172-2.932c-.087-1.212-.016-2.349.157-2.526.173-.177.314-.667.314-1.09 0-.422.302-.929.671-1.127.37-.197 1.079-.256 1.578-.131.638.16.834.112.665-.162-.132-.213-.631-.388-1.108-.388-.744 0-.834-.108-.628-.763.132-.419.369-1.591.527-2.604.162-1.03.159-2.083-.006-2.391-.162-.302-.191-.71-.064-.905.127-.195.612-.562 1.079-.817.466-.254.924-.474 1.017-.487a23.4 23.4 0 0 0 1.138-.282c.745-.197.929-.41.795-.919-.127-.486-.001-.663.474-.663.355 0 .646-.217.646-.484 0-.266-.381-.783-.848-1.15-.466-.367-.848-.835-.848-1.042a.379.379 0 0 0-.38-.375c-.264 0-.252-.155.04-.506.231-.279.34-.813.242-1.188-.098-.375.095-1.253.429-1.951.334-.698.716-1.804.849-2.456.132-.653.624-1.752 1.093-2.442.683-1.009 1.128-1.297 2.257-1.466.774-.115 1.788-.061 2.255.122.466.182 1.177.643 1.579 1.025.403.382.914 1.247 1.138 1.922.245.744.314 1.854.173 2.813-.128.872-.372 1.73-.544 1.907-.171.177-.311.597-.311.932 0 .336-.138.61-.307.61-.169 0-.231.292-.138.649.111.426-.072.779-.533 1.025-.386.207-.837.868-1.001 1.47-.163.602-.458 1.06-.654 1.02-.195-.041-.442.152-.548.428-.107.276-.487.817-.845 1.201-.466.501-.704 1.39-.838 3.131-.103 1.338-.276 2.966-.384 3.619-.109.652-.371 2.025-.582 3.051-.281 1.366-.674 2.136-1.473 2.881-.598.559-1.195 1.36-1.325 1.78-.131.419-.446.762-.701.762-.254 0-.56.306-.678.679-.119.373-.5.83-.849 1.017-.348.186-1.304.338-2.125.338Zm-19.934-4.942c.169-.172.466-.731.659-1.244.306-.808.269-.932-.276-.932-.346 0-.782.19-.97.423-.217.269-.228.725-.032 1.244.188.495.433.697.619.509Zm-7.39-2.859c.245-.003.675-.15.955-.327.446-.282.436-.394-.076-.907-.323-.322-.647-.518-.722-.436-.074.082-.241.493-.37.912-.161.524-.095.761.213.758Zm18.001-12.564c.14.014.255-.117.255-.293 0-.175-.146-.409-.325-.519-.178-.11-.226-.462-.106-.783.191-.509.146-.523-.354-.117-.315.256-.572.663-.572.904s.191.516.424.61c.233.094.538.183.678.198Zm-4.07-2.576c-.298.189-.424.017-.424-.578 0-.466.116-.919.258-1.007.142-.088.55.054.908.316.357.261.534.59.392.732-.142.142-.36.26-.484.263-.125.003-.417.126-.65.274ZM33.47 25.736c.032.015.298-.066.592-.178.294-.113.45-.342.347-.509-.103-.167-.56-.303-1.016-.303-.455 0-.828.14-.828.31 0 .171.191.388.424.482.234.094.45.183.481.198Z"/>
</svg>
